<?xml version="1.0" standalone="no"?><svg xmlns="http://www.w3.org/2000/svg" viewBox="0 0 1440 320"><path fill="#6C63FF" fill-opacity="1" d="M0,96L21.8,101.3C43.6,107,87,117,131,138.7C174.5,160,218,192,262,208C305.5,224,349,224,393,192C436.4,160,480,96,524,101.3C567.3,107,611,181,655,186.7C698.2,192,742,128,785,85.3C829.1,43,873,21,916,32C960,43,1004,85,1047,112C1090.9,139,1135,149,1178,160C1221.8,171,1265,181,1309,192C1352.7,203,1396,213,1418,218.7L1440,224L1440,0L1418.2,0C1396.4,0,1353,0,1309,0C1265.5,0,1222,0,1178,0C1134.5,0,1091,0,1047,0C1003.6,0,960,0,916,0C872.7,0,829,0,785,0C741.8,0,698,0,655,0C610.9,0,567,0,524,0C480,0,436,0,393,0C349.1,0,305,0,262,0C218.2,0,175,0,131,0C87.3,0,44,0,22,0L0,0Z"></path></svg>